<svg width="200" height="200" viewBox="0 0 200 200" fill="none" xmlns="http://www.w3.org/2000/svg">
<path d="M138.912 27.4613C142.316 27.1297 145.927 27.5084 149.288 27.3607C179.307 26.0421 200.674 58.6572 189.192 84.8313C183.115 98.6848 174.498 105.781 153.145 111.819C151.614 112.193 147.566 113.533 147.566 113.533C146.702 113.858 146.009 114.107 145.42 114.818C144.721 115.656 145.208 116.07 146.046 116.862C149.695 120.31 153.622 123.744 157.361 127.092L180.463 147.693C182.62 149.598 184.681 151.459 186.76 153.451C187.855 154.592 189.84 156.848 190.748 158.084C195.556 164.636 192.378 172.242 183.946 172.9C166.032 173.108 147.76 172.927 129.818 172.931L113.587 172.954C106.247 172.97 100.242 173.616 93.93 168.828C88.009 164.642 83.6426 154.982 85.8554 147.788C88.2649 139.954 91.0063 131.771 93.5925 123.863L99.8787 104.813L113.054 64.7701C114.795 59.3976 116.637 54.031 118.301 48.6373C119.023 46.2971 119.656 44.0068 120.541 41.7155C121.341 39.5821 122.473 37.588 123.896 35.807C127.859 30.8122 132.617 28.207 138.912 27.4613Z" fill="#4263F7"/>
<path d="M24.6388 27.1915C25.4555 27.0527 30.0053 27.0972 30.9422 27.0976L44.2876 27.1102L68.6755 27.105C73.3378 27.0943 83.0993 26.5979 87.2699 27.8608C92.4479 29.4032 96.7871 32.9591 99.3113 37.7286C104.346 47.2493 98.958 55.2885 96.1913 64.4598C95.5506 66.5842 94.6071 68.6617 93.8902 70.769L78.7582 114.838L74.2387 128.134C73.0347 131.573 71.7941 134.665 70.6888 138.192C69.7031 141.258 68.5329 145.416 66.5139 147.786C60.8257 154.212 49.5706 152.924 46.145 144.753C44.2104 140.138 42.3932 135.581 40.5419 130.962L31.5671 109.047L14.9499 68.8595C13.4956 65.4071 12.0716 61.942 10.6782 58.4647C9.25995 55.0226 7.53843 51.8553 7.10794 48.0966C5.94051 37.9039 14.4053 28.177 24.6388 27.1915Z" fill="#505DF7"/>
</svg>
